<svg viewBox="0 0 170.99 184" xmlns="http://www.w3.org/2000/svg"><rect fill="#2079bb" height="123.28" rx="2.09" transform="matrix(.70710678 -.70710678 .70710678 .70710678 -14.04 94.35)" width="60.53" x="76.61" y="2.48"/><rect fill="#1d5c94" height="123.28" rx="2.09" transform="matrix(.70710678 -.70710678 .70710678 .70710678 -65.99 80.45)" width="60.53" x="33.85" y="58.24"/><path d="m84.31 91c9.12-9 19.68-17.62 23.81-13.43 5.9 6 9.53 11.18 22.7.74s3.18-17.54-2.56-23.31c-6.6-6.68-30.49.2-55.14 24.51s-32 48.29-25.41 55c5.72 5.8 12.67 15.91 23.29 2.87s5.47-16.72-.44-22.71c-4.11-4.23 4.63-14.67 13.75-23.67z" fill="#fff"/></svg>